<?xml version="1.0" standalone="no"?>
<svg viewBox="0 0 200 200" xmlns="http://www.w3.org/2000/svg">
  <path fill="#F7F7F7" d="M45.9,-80C59.5,-71.7,70.4,-59.3,77.3,-45.3C84.3,-31.3,87.3,-15.6,88,0.4C88.8,16.5,87.3,33,80.2,46.8C73.2,60.7,60.5,71.8,46.2,78.2C31.9,84.6,16,86.4,0.5,85.5C-14.9,84.6,-29.8,81,-44.2,74.6C-58.6,68.3,-72.5,59.1,-81.6,46.2C-90.7,33.2,-95.1,16.6,-94.3,0.5C-93.5,-15.7,-87.4,-31.3,-78.3,-44.2C-69.2,-57.1,-56.9,-67.3,-43.4,-75.5C-29.8,-83.8,-14.9,-90.1,0.6,-91.2C16.2,-92.4,32.4,-88.2,45.9,-80Z" transform="translate(100 100)" />
</svg>
