<svg xmlns="http://www.w3.org/2000/svg" viewBox="0 0 500 500"><g id="freepik--background-simple--inject-15"><path d="M250.67,70.54c45.57-6.2,85.71,21.48,110,58.1A178.34,178.34,0,0,1,386.45,190c4.15,19.62,6,40.07,13.05,58.94,6.79,18.28,14.85,36.18,18,55.57,6.23,38.55-13.05,71.62-49.29,86.13-39.7,15.9-89,13.14-125.62-9.64-18.91-11.76-39.54-17.92-60.93-23.33-21-5.31-41.78-5.46-61.07-17.05C95.36,325.49,80.42,297,77.82,268.14c-2.62-29,9.72-54.49,28.84-75.64,14-15.45,28.84-30.17,43.2-45.21,14.91-15.63,28.53-32.62,43.85-47.84C210.26,83,230,73.34,250.67,70.54Z" style="fill:#407BFF"></path><path d="M250.67,70.54c45.57-6.2,85.71,21.48,110,58.1A178.34,178.34,0,0,1,386.45,190c4.15,19.62,6,40.07,13.05,58.94,6.79,18.28,14.85,36.18,18,55.57,6.23,38.55-13.05,71.62-49.29,86.13-39.7,15.9-89,13.14-125.62-9.64-18.91-11.76-39.54-17.92-60.93-23.33-21-5.31-41.78-5.46-61.07-17.05C95.36,325.49,80.42,297,77.82,268.14c-2.62-29,9.72-54.49,28.84-75.64,14-15.45,28.84-30.17,43.2-45.21,14.91-15.63,28.53-32.62,43.85-47.84C210.26,83,230,73.34,250.67,70.54Z" style="fill:#fff;opacity:0.9"></path></g><g id="freepik--Shadow--inject-15"><ellipse id="freepik--path--inject-15" cx="250" cy="416.24" rx="193.89" ry="11.32" style="fill:#f5f5f5"></ellipse></g><g id="freepik--Plant--inject-15"><path d="M381,335.94c-.23,1.59,4.08,2.64,7.6,3.22-.29,2.89-2.21,5.8-4.86,8.53-3.34-1.88-8.1-4.37-9-3.76s3.91,3.82,7,5.67a62.58,62.58,0,0,1-6.9,5.23c-1.5-1.4-3.25-2.62-4.29-2s-.79,2.85-.26,4.78c-3.63,2.11-6.34,3.4-6.34,3.4a74.56,74.56,0,0,1-2.43-10.3q.28-.54.54-1.11c.58-1.35,0-1.93-1-2.12a35.45,35.45,0,0,1-.06-7.42c4.1-.86,9.1-2.46,7.23-4.92-1.13-1.48-3.2-1.65-5.35-1.28a9.29,9.29,0,0,1,1-1.38c7.47-8.24,12.68,0,12.68,0,4.35-3.62,10.45-2.64,11.77,3C385.94,334.91,381.27,334,381,335.94Z" style="fill:#407BFF"></path><path d="M381,335.94c-.23,1.59,4.08,2.64,7.6,3.22-.29,2.89-2.21,5.8-4.86,8.53-3.34-1.88-8.1-4.37-9-3.76s3.91,3.82,7,5.67a62.58,62.58,0,0,1-6.9,5.23c-1.5-1.4-3.25-2.62-4.29-2s-.79,2.85-.26,4.78c-3.63,2.11-6.34,3.4-6.34,3.4a74.56,74.56,0,0,1-2.43-10.3q.28-.54.54-1.11c.58-1.35,0-1.93-1-2.12a35.45,35.45,0,0,1-.06-7.42c4.1-.86,9.1-2.46,7.23-4.92-1.13-1.48-3.2-1.65-5.35-1.28a9.29,9.29,0,0,1,1-1.38c7.47-8.24,12.68,0,12.68,0,4.35-3.62,10.45-2.64,11.77,3C385.94,334.91,381.27,334,381,335.94Z" style="fill:#fff;opacity:0.30000000000000004;isolation:isolate"></path><path d="M371.67,396.46l1.07-.09c0-.56-4.42-55.69,7.95-60.89a4.18,4.18,0,0,1,3.75.09c4.47,2.33,6.62,12,6.64,12.08l1.05-.23c-.09-.42-2.27-10.25-7.19-12.81a5.31,5.31,0,0,0-4.67-.13C367.18,340,371.48,394.15,371.67,396.46Z" style="fill:#407BFF"></path><path d="M370.11,395.26c.22-2.48,5.27-60.82-4.18-67-2.26-1.48-4.28-1.8-6-.93-4.46,2.25-5,11.79-5.07,12.19l1.08.07c0-.1.57-9.33,4.48-11.3,1.35-.67,3-.38,4.92.87,8.91,5.85,3.74,65.42,3.69,66Z" style="fill:#407BFF"></path><path d="M368.69,400c.07-1.9,1.62-46.56-7-50.47a6,6,0,0,0-5.11,0c-5.9,2.6-9.55,13.6-9.7,14.06l1,.34c0-.11,3.64-11,9.1-13.41a4.94,4.94,0,0,1,4.23,0c6.6,3,6.82,36.7,6.35,49.44Z" style="fill:#407BFF"></path><path d="M370.87,397.94l1.08-.13c-1.52-13.29-4.41-48.7.32-52.93a1.88,1.88,0,0,1,1.94-.6c3.17,1.22,5.1,12.74,5.58,17.08l1.07-.12c-.18-1.66-1.91-16.29-6.27-18a2.84,2.84,0,0,0-3,.8C365.43,349.54,370.65,396,370.87,397.94Z" style="fill:#407BFF"></path><polygon points="388.91 372.74 350.08 372.74 353.32 416.24 385.67 416.24 388.91 372.74" style="fill:#263238"></polygon><path d="M383.62,356.78c.41,1.06,3.42.22,5.79-.62.81,1.88.63,4.33-.07,6.92-2.7,0-6.49.09-6.82.76s3.72,1,6.24,1.11a44.49,44.49,0,0,1-2.47,5.59c-1.4-.35-2.9-.5-3.32.26s.49,2,1.48,3c-1.51,2.55-2.74,4.27-2.74,4.27a51.76,51.76,0,0,1-5-5.52c0-.29,0-.57-.05-.87-.1-1-.65-1.19-1.31-1a25.22,25.22,0,0,1-2.58-4.55c2.23-1.94,4.77-4.64,2.77-5.52-1.21-.52-2.54.08-3.74,1.05a5.88,5.88,0,0,1,.16-1.2c1.78-7.65,7.82-4.35,7.82-4.35,1.44-3.73,5.54-5.21,8.29-2.18C386.32,354.44,383.12,355.47,383.62,356.78Z" style="fill:#407BFF"></path><path d="M383.62,356.78c.41,1.06,3.42.22,5.79-.62.81,1.88.63,4.33-.07,6.92-2.7,0-6.49.09-6.82.76s3.72,1,6.24,1.11a44.49,44.49,0,0,1-2.47,5.59c-1.4-.35-2.9-.5-3.32.26s.49,2,1.48,3c-1.51,2.55-2.74,4.27-2.74,4.27a51.76,51.76,0,0,1-5-5.52c0-.29,0-.57-.05-.87-.1-1-.65-1.19-1.31-1a25.22,25.22,0,0,1-2.58-4.55c2.23-1.94,4.77-4.64,2.77-5.52-1.21-.52-2.54.08-3.74,1.05a5.88,5.88,0,0,1,.16-1.2c1.78-7.65,7.82-4.35,7.82-4.35,1.44-3.73,5.54-5.21,8.29-2.18C386.32,354.44,383.12,355.47,383.62,356.78Z" style="fill:#fff;opacity:0.30000000000000004;isolation:isolate"></path><path d="M354.79,361.94a14.77,14.77,0,0,1,3.55.75,8.28,8.28,0,0,0,.52-2.57c.25-7.83-5.36-4.53-8.32-6.83a6.36,6.36,0,0,0-5-1.55,10.47,10.47,0,0,1,.67,1.34,1.22,1.22,0,0,1-.95,1.67,3,3,0,0,1-2.76-.65,11,11,0,0,0-1.08,2.62,15.07,15.07,0,0,0-.5,3.35,10.23,10.23,0,0,1,1.31.37,1.22,1.22,0,0,1,.49,1.86,5.44,5.44,0,0,1-1.62,1.13,18,18,0,0,0,1,3.67l.4.06.84.21a2.68,2.68,0,0,1,.47.18,1.22,1.22,0,0,1,.73.94,1.25,1.25,0,0,1-.46,1.14,5.58,5.58,0,0,1-.58.35,8.52,8.52,0,0,0,3.1,3.13,31.68,31.68,0,0,0,3.3-1.74c-.23-.31-.47-.63-.69-.95a1.85,1.85,0,0,1-.33-1.23,1.67,1.67,0,0,1,1.87-1.44,1.69,1.69,0,0,1,1.1.64c.26.38.55.75.83,1.12a20.47,20.47,0,0,0,4-3.86l-.12,0a12.59,12.59,0,0,0-2.21-.37,1.68,1.68,0,0,1-1.44-1.86A1.7,1.7,0,0,1,354.79,361.94Z" style="fill:#407BFF"></path><path d="M354.79,361.94a14.77,14.77,0,0,1,3.55.75,8.28,8.28,0,0,0,.52-2.57c.25-7.83-5.36-4.53-8.32-6.83a6.36,6.36,0,0,0-5-1.55,10.47,10.47,0,0,1,.67,1.34,1.22,1.22,0,0,1-.95,1.67,3,3,0,0,1-2.76-.65,11,11,0,0,0-1.08,2.62,15.07,15.07,0,0,0-.5,3.35,10.23,10.23,0,0,1,1.31.37,1.22,1.22,0,0,1,.49,1.86,5.44,5.44,0,0,1-1.62,1.13,18,18,0,0,0,1,3.67l.4.06.84.21a2.68,2.68,0,0,1,.47.18,1.22,1.22,0,0,1,.73.94,1.25,1.25,0,0,1-.46,1.14,5.58,5.58,0,0,1-.58.35,8.52,8.52,0,0,0,3.1,3.13,31.68,31.68,0,0,0,3.3-1.74c-.23-.31-.47-.63-.69-.95a1.85,1.85,0,0,1-.33-1.23,1.67,1.67,0,0,1,1.87-1.44,1.69,1.69,0,0,1,1.1.64c.26.38.55.75.83,1.12a20.47,20.47,0,0,0,4-3.86l-.12,0a12.59,12.59,0,0,0-2.21-.37,1.68,1.68,0,0,1-1.44-1.86A1.7,1.7,0,0,1,354.79,361.94Z" style="fill:#fff;opacity:0.5;isolation:isolate"></path><path d="M352.55,334.94a10.24,10.24,0,0,0-2.19-1.16,5.37,5.37,0,0,1,.85-1.58c3.31-4.23,4.8,0,7.37.06a4.36,4.36,0,0,1,3.28,1.36,8.63,8.63,0,0,0-.94.41.85.85,0,0,0-.23,1.3,2.16,2.16,0,0,0,1.74.87,7.45,7.45,0,0,1-.59,1.84,10.32,10.32,0,0,1-1.2,2,5.82,5.82,0,0,0-.85-.38.84.84,0,0,0-1.08.76,3.8,3.8,0,0,0,.35,1.3,11.74,11.74,0,0,1-2.13,1.5l-.23-.14-.54-.27-.32-.11a.86.86,0,0,0-.8.18.8.8,0,0,0-.25.79,3.36,3.36,0,0,0,.14.45,5.92,5.92,0,0,1-3,.28,22.28,22.28,0,0,1-1-2.36l.78-.2a1.29,1.29,0,0,0,.71-.5,1.14,1.14,0,0,0,.16-.86,1.2,1.2,0,0,0-.5-.72,1.18,1.18,0,0,0-.86-.15c-.31.09-.62.16-.93.23a14,14,0,0,1-.4-3.78l.08,0a7.23,7.23,0,0,1,1.32.77,1.14,1.14,0,1,0,1.23-1.92Z" style="fill:#407BFF"></path><path d="M352.55,334.94a10.24,10.24,0,0,0-2.19-1.16,5.37,5.37,0,0,1,.85-1.58c3.31-4.23,4.8,0,7.37.06a4.36,4.36,0,0,1,3.28,1.36,8.63,8.63,0,0,0-.94.41.85.85,0,0,0-.23,1.3,2.16,2.16,0,0,0,1.74.87,7.45,7.45,0,0,1-.59,1.84,10.32,10.32,0,0,1-1.2,2,5.82,5.82,0,0,0-.85-.38.84.84,0,0,0-1.08.76,3.8,3.8,0,0,0,.35,1.3,11.74,11.74,0,0,1-2.13,1.5l-.23-.14-.54-.27-.32-.11a.86.86,0,0,0-.8.18.8.8,0,0,0-.25.79,3.36,3.36,0,0,0,.14.45,5.92,5.92,0,0,1-3,.28,22.28,22.28,0,0,1-1-2.36l.78-.2a1.29,1.29,0,0,0,.71-.5,1.14,1.14,0,0,0,.16-.86,1.2,1.2,0,0,0-.5-.72,1.18,1.18,0,0,0-.86-.15c-.31.09-.62.16-.93.23a14,14,0,0,1-.4-3.78l.08,0a7.23,7.23,0,0,1,1.32.77,1.14,1.14,0,1,0,1.23-1.92Z" style="fill:#fff;opacity:0.30000000000000004;isolation:isolate"></path><path d="M384.19,342.78c.22,1.59-4.08,2.63-7.6,3.22.29,2.88,2.21,5.8,4.86,8.52,3.33-1.88,8.09-4.36,9-3.75s-3.92,3.81-7,5.67a62.89,62.89,0,0,0,6.9,5.23c1.5-1.4,3.25-2.63,4.29-2s.79,2.85.25,4.78c3.63,2.11,6.35,3.4,6.35,3.4a73.75,73.75,0,0,0,2.42-10.3c-.18-.36-.36-.73-.53-1.12-.58-1.35,0-1.92.95-2.11a36.15,36.15,0,0,0,.06-7.42c-4.11-.87-9.1-2.46-7.23-4.92,1.13-1.49,3.19-1.66,5.34-1.28a8.83,8.83,0,0,0-1-1.39c-7.47-8.23-12.69,0-12.69,0-4.34-3.61-10.44-2.63-11.76,3C379.24,341.75,383.91,340.82,384.19,342.78Z" style="fill:#407BFF"></path><path d="M384.19,342.78c.22,1.59-4.08,2.63-7.6,3.22.29,2.88,2.21,5.8,4.86,8.52,3.33-1.88,8.09-4.36,9-3.75s-3.92,3.81-7,5.67a62.89,62.89,0,0,0,6.9,5.23c1.5-1.4,3.25-2.63,4.29-2s.79,2.85.25,4.78c3.63,2.11,6.35,3.4,6.35,3.4a73.75,73.75,0,0,0,2.42-10.3c-.18-.36-.36-.73-.53-1.12-.58-1.35,0-1.92.95-2.11a36.15,36.15,0,0,0,.06-7.42c-4.11-.87-9.1-2.46-7.23-4.92,1.13-1.49,3.19-1.66,5.34-1.28a8.83,8.83,0,0,0-1-1.39c-7.47-8.23-12.69,0-12.69,0-4.34-3.61-10.44-2.63-11.76,3C379.24,341.75,383.91,340.82,384.19,342.78Z" style="fill:#fff;opacity:0.5;isolation:isolate"></path></g><g id="freepik--Umbrellas--inject-15"><path d="M135.88,404.31c-.91-1.61-.71-3.24-.8-4.87l-.14-4.88-.27-9.75-.56-19.52-1.08-39-1-39-.41-19.59a7.84,7.84,0,0,1,15.67-.06,1.5,1.5,0,0,1-3,.07,4.76,4.76,0,0,0-9.51,0l.56,19.45,1,39,.93,39,.45,19.52.22,9.76.11,4.88c0,1.62.29,3.24-.54,4.89a1,1,0,0,1-1.27.43A1,1,0,0,1,135.88,404.31Z" style="fill:#263238"></path><path d="M135.88,404.31c-.91-1.61-.71-3.24-.8-4.87l-.14-4.88-.27-9.75-.56-19.52-1.08-39-1-39-.41-19.59a7.84,7.84,0,0,1,15.67-.06,1.5,1.5,0,0,1-3,.07,4.76,4.76,0,0,0-9.51,0l.56,19.45,1,39,.93,39,.45,19.52.22,9.76.11,4.88c0,1.62.29,3.24-.54,4.89a1,1,0,0,1-1.27.43A1,1,0,0,1,135.88,404.31Z" style="fill:#fff;opacity:0.4"></path><path d="M126.44,329.05c1.18,18.68,8.65,69,8.65,69l2.87-.18s5.72-59.35,4.86-73.09-3.66-22.19-3.66-22.19l2.65-11.24a.46.46,0,0,0-.76-.44,8,8,0,0,1-1.14.84,3.32,3.32,0,0,1-4.57-.86,8.27,8.27,0,0,1-1.05-1.57.46.46,0,0,0-.85.12c-1.06,4.24-2.95,4.22-4.59,3.11a8.33,8.33,0,0,1-1.51-1.34.45.45,0,0,0-.77.45l3.75,11.49S125.26,310.35,126.44,329.05Z" style="fill:#263238"></path><path d="M126.44,329.05c1.18,18.68,8.65,69,8.65,69l2.87-.18s5.72-59.35,4.86-73.09-3.66-22.19-3.66-22.19l2.65-11.24a.46.46,0,0,0-.76-.44,8,8,0,0,1-1.14.84,3.32,3.32,0,0,1-4.57-.86,8.27,8.27,0,0,1-1.05-1.57.46.46,0,0,0-.85.12c-1.06,4.24-2.95,4.22-4.59,3.11a8.33,8.33,0,0,1-1.51-1.34.45.45,0,0,0-.77.45l3.75,11.49S125.26,310.35,126.44,329.05Z" style="fill:#fff;opacity:0.2"></path><path d="M136.61,400.25c0-.2.08-1,.19-2.3,1-11.6,5.14-62.88,4.91-74.1-.27-12.67-4.09-20.75-4.09-20.75l2.29-11.34a3.32,3.32,0,0,1-4.57-.86l-.57,11.85s2,3.18,2.9,22.15c.83,16.66-.61,62.21-1,73.06C136.64,399.24,136.62,400,136.61,400.25Z" style="opacity:0.2;isolation:isolate"></path><path d="M136.18,398c.14.89.22,1.38.22,1.38l-.06-1.39-3.84-94.43.94-14.1c-1.06,4.24-2.95,4.22-4.59,3.11l1.47,10.6C124.78,321,134.6,387.57,136.18,398Z" style="opacity:0.2;isolation:isolate"></path><polygon points="129.1 301.62 140.32 302 140.44 303.88 129.26 304.19 129.1 301.62" style="fill:#407BFF"></polygon><polygon points="129.1 301.62 140.32 302 140.44 303.88 129.26 304.19 129.1 301.62" style="opacity:0.2;isolation:isolate"></polygon><path d="M138.06,416.38c-1.06-1.37-1.14-2.9-1.42-4.4l-.78-4.5-1.57-9-3.12-18-6.24-36-6.14-36.05-3-18-.75-4.51-.37-2.25c-.13-.73-.25-1.6-.38-2.07a4.77,4.77,0,0,0-5.33-3.34l-.26,0,.26,0a4.78,4.78,0,0,0-3.93,5.5,1.5,1.5,0,0,1-3,.51h0a7.83,7.83,0,0,1,6.37-9l.26,0-.26,0a7.94,7.94,0,0,1,5.47,1.06,7.82,7.82,0,0,1,3.4,4.43,24.39,24.39,0,0,1,.48,2.42l.4,2.26.78,4.5,3.13,18,6.17,36.05,6.06,36.07,3,18,1.52,9,.75,4.51c.23,1.51.67,3,.11,4.62a.94.94,0,0,1-1.2.59A1,1,0,0,1,138.06,416.38Z" style="fill:#263238"></path><path d="M134.41,340.43c2.45,18.56,4.86,69.39,4.86,69.39l-2.84.37s-17.1-57.12-18.91-70.76-.71-22.48-.71-22.48L112,306.43a.46.46,0,0,1,.66-.58,7.67,7.67,0,0,0,1.28.61,3.31,3.31,0,0,0,4.31-1.73A8.1,8.1,0,0,0,119,303a.46.46,0,0,1,.86,0c1.86,3.95,3.71,3.56,5.11,2.15a8.78,8.78,0,0,0,1.22-1.6.46.46,0,0,1,.85.29l-1.46,12S132,321.87,134.41,340.43Z" style="fill:#407BFF"></path><path d="M138.19,410c0,.9.06,1.39.06,1.39L138,410l-14.49-93.39L119.88,303c1.86,3.95,3.71,3.56,5.11,2.15l.61,10.69C134.49,332.25,137.73,399.43,138.19,410Z" style="opacity:0.2;isolation:isolate"></path><path d="M138.21,412.26c-.06-.19-.27-1-.63-2.22-3.19-11.2-17.21-60.7-19.15-71.75-2.19-12.48,0-21.15,0-21.15L114,306.46a3.31,3.31,0,0,0,4.31-1.73l2.86,11.51s-1.31,3.51,1.44,22.3C125,355,135.23,399.46,137.69,410,138,411.28,138.16,412.05,138.21,412.26Z" style="opacity:0.2;isolation:isolate"></path><polygon points="126.49 314.04 115.56 316.59 115.81 318.45 126.83 316.59 126.49 314.04" style="fill:#407BFF"></polygon><polygon points="126.49 314.04 115.56 316.59 115.81 318.45 126.83 316.59 126.49 314.04" style="opacity:0.2;isolation:isolate"></polygon><path d="M141.3,416.19c-.78-1.67-.44-3.28-.39-4.91l.26-4.87.53-9.75,1.06-19.5,2.14-39,2.24-39,1.2-19.56A7.84,7.84,0,0,1,164,280.86a1.5,1.5,0,0,1-3-.17,4.77,4.77,0,0,0-7.83-3.91,4.74,4.74,0,0,0-1.66,3.16l-1,19.43-2.21,39-2.29,39-1.17,19.49-.58,9.75-.29,4.87c-.14,1.62,0,3.26-.94,4.84a1,1,0,0,1-1.31.31A.89.89,0,0,1,141.3,416.19Z" style="fill:#263238"></path><path d="M138.1,340.41c-.36,18.71,2.93,69.49,2.93,69.49l2.87.05s10.6-58.67,10.87-72.43S153,315.1,153,315.1l3.57-11a.46.46,0,0,0-.72-.5,7.17,7.17,0,0,1-1.21.74,3.31,3.31,0,0,1-4.47-1.24,8,8,0,0,1-.92-1.64.46.46,0,0,0-.86,0c-1.4,4.13-3.29,4-4.84,2.72a8.76,8.76,0,0,1-1.39-1.46.46.46,0,0,0-.81.38l2.8,11.76S138.46,321.68,138.1,340.41Z" style="fill:#407BFF"></path><path d="M138.1,340.41c-.36,18.71,2.93,69.49,2.93,69.49l2.87.05s10.6-58.67,10.87-72.43S153,315.1,153,315.1l3.57-11a.46.46,0,0,0-.72-.5,7.17,7.17,0,0,1-1.21.74,3.31,3.31,0,0,1-4.47-1.24,8,8,0,0,1-.92-1.64.46.46,0,0,0-.86,0c-1.4,4.13-3.29,4-4.84,2.72a8.76,8.76,0,0,1-1.39-1.46.46.46,0,0,0-.81.38l2.8,11.76S138.46,321.68,138.1,340.41Z" style="fill:#fff;opacity:0.4"></path><path d="M142.12,409.92c.06.9.1,1.39.1,1.39l.06-1.39,4-94.42,2.1-14c-1.4,4.13-3.29,4-4.84,2.72l.6,10.68C137.11,332.29,141.4,399.4,142.12,409.92Z" style="opacity:0.2;isolation:isolate"></path><path d="M142.37,412.2c0-.18.15-1,.37-2.27,1.91-11.48,10.31-62.24,11-73.44.77-12.65-2.36-21-2.36-21l3.21-11.11a3.31,3.31,0,0,1-4.47-1.24l-1.55,11.77s1.69,3.33,1.06,22.31c-.55,16.67-5.74,61.95-7,72.73C142.48,411.21,142.39,412,142.37,412.2Z" style="opacity:0.2;isolation:isolate"></path><polygon points="143.01 313.3 154.16 314.6 154.13 316.48 142.96 315.87 143.01 313.3" style="fill:#263238"></polygon><polygon points="143.01 313.3 154.16 314.6 154.13 316.48 142.96 315.87 143.01 313.3" style="fill:#263238;opacity:0.2;isolation:isolate"></polygon><g style="opacity:0.4"><polygon points="143.01 313.3 154.16 314.6 154.13 316.48 142.96 315.87 143.01 313.3" style="fill:#fff"></polygon><polygon points="143.01 313.3 154.16 314.6 154.13 316.48 142.96 315.87 143.01 313.3" style="fill:#fff;opacity:0.2;isolation:isolate"></polygon></g><path d="M111.43,311.72V415.38h46.86V311.72Zm45.28,1.84-.24.24-.51-.51h.75Zm-.24,97.51-4.29-4.29,4.29-4.29.24.24v8.1Zm-2.74,2.74H148.4l-1.62-1.63,4.29-4.29,4.29,4.29Zm-39.37-1.63,4.29-4.29,4.28,4.29-1.62,1.63H116ZM113,410.83v-8.1l.24-.24,4.29,4.29-4.29,4.29Zm.24-94.8,4.29,4.29-4.29,4.29-.24-.24v-8.1Zm2.74-2.74h5.33l1.62,1.63-4.28,4.29-4.29-4.29Zm39.38,1.63-4.29,4.29-4.29-4.29,1.62-1.63h5.33Zm-21.62,32.42-4.29,4.29-4.28-4.29,4.28-4.29Zm-3.17-5.4,4.29-4.29,4.29,4.29-4.29,4.28Zm4.29,6.51,4.29,4.29L134.86,357l-4.29-4.29Zm-1.12,9.7-4.29,4.28-4.28-4.28,4.28-4.29Zm1.12,1.11,4.29,4.29-4.29,4.29-4.29-4.29ZM133.74,369l-4.29,4.29L125.17,369l4.28-4.28Zm1.12,1.12,4.29,4.29-4.29,4.29-4.29-4.29Zm-1.12,9.69-4.29,4.29-4.28-4.29,4.28-4.29Zm1.12,1.12,4.29,4.28-4.29,4.29-4.29-4.29Zm1.11-1.12,4.29-4.29,4.29,4.29-4.29,4.29ZM136,369l4.29-4.28,4.29,4.28-4.29,4.29Zm0-10.8,4.29-4.29,4.29,4.29-4.29,4.28Zm0-10.81,4.29-4.29,4.29,4.29-4.29,4.29Zm0-10.81,4.29-4.29,4.29,4.29-4.29,4.29Zm-1.11-1.11-4.29-4.29,4.29-4.29,4.29,4.29Zm-1.12,1.11-4.29,4.29-4.28-4.29,4.28-4.29Zm-9.69-1.11-4.29-4.29,4.29-4.29,4.29,4.29Zm4.29,6.52-4.29,4.28-4.29-4.28,4.29-4.29Zm0,10.8L124.05,357l-4.29-4.29,4.29-4.29Zm0,10.81-4.29,4.29-4.29-4.29,4.29-4.29Zm0,10.81-4.29,4.29-4.29-4.29,4.29-4.29Zm0,10.8-4.29,4.29-4.29-4.29,4.29-4.28Zm-3.17,5.41,4.28-4.29,4.29,4.29-4.29,4.29Zm3.17,5.4-4.29,4.29L119.76,396l4.29-4.29Zm6.52-4.29,4.29,4.29-4.29,4.29L130.57,396Zm1.11-1.11,4.29-4.29,4.29,4.29-4.29,4.29Zm9.69,1.11L150,396l-4.29,4.29L141.38,396Zm-4.28-6.52,4.28-4.28,4.29,4.28-4.29,4.29Zm0-10.8,4.28-4.29,4.29,4.29-4.29,4.29Zm0-10.81,4.28-4.29,4.29,4.29-4.29,4.29Zm0-10.81,4.28-4.29,4.29,4.29L145.66,357Zm0-10.8,4.28-4.29,4.29,4.29-4.29,4.28Zm0-10.81,4.28-4.29,4.29,4.29-4.29,4.29Zm3.17-5.41L140.26,330,136,325.73l4.29-4.29Zm-3.17-5.4,4.28-4.29,4.29,4.29-4.29,4.29Zm-6.52,4.29-4.29-4.29,4.29-4.29,4.29,4.29Zm-1.12,1.12L129.45,330l-4.28-4.29,4.28-4.28Zm-9.69-1.12-4.29-4.29,4.29-4.29,4.29,4.29Zm-1.12,1.11L118.65,330l-4.29-4.29,4.29-4.28Zm0,10.81-4.28,4.29-4.29-4.29,4.29-4.29Zm0,10.81-4.28,4.29-4.29-4.29,4.29-4.29Zm0,10.81-4.28,4.28-4.29-4.28,4.29-4.29Zm0,10.8-4.28,4.29L114.36,369l4.29-4.28Zm0,10.81-4.28,4.29-4.29-4.29,4.29-4.29Zm0,10.81-4.28,4.29-4.29-4.29,4.29-4.29Zm0,10.81-4.28,4.28-4.29-4.28,4.29-4.29Zm1.12,1.11,4.29,4.29-4.29,4.29-4.29-4.29Zm1.12-1.11,4.28-4.29,4.29,4.29-4.29,4.28Zm9.69,1.11,4.29,4.29-4.29,4.29-4.29-4.29Zm1.11-1.11,4.29-4.29,4.29,4.29-4.29,4.28Zm9.69,1.11,4.29,4.29-4.29,4.29-4.28-4.29Zm1.12-1.11,4.29-4.29,4.29,4.29-4.29,4.28Zm0-10.81,4.29-4.29,4.29,4.29-4.29,4.29Zm0-10.81,4.29-4.29,4.29,4.29-4.29,4.29Zm0-10.81,4.29-4.28,4.29,4.28-4.29,4.29Zm0-10.8,4.29-4.29,4.29,4.29-4.29,4.28Zm0-10.81,4.29-4.29,4.29,4.29-4.29,4.29Zm0-10.81,4.29-4.29,4.29,4.29-4.29,4.29Zm0-10.81,4.29-4.28,4.29,4.28L151.07,330Zm-1.12-11.92-.5-.51h1Zm-1.11,1.12-4.29,4.29L136,314.92l1.63-1.63h5.33Zm-9.69-1.12-.51-.51h1Zm-1.12,1.12-4.29,4.29-4.28-4.29,1.62-1.63h5.33Zm-9.69-1.12-.51-.51h1Zm-10.81,13,4.29,4.29-4.29,4.29-.24-.24v-8.1Zm0,10.81,4.29,4.29-4.29,4.28L113,346v-8.09Zm0,10.8,4.29,4.29L113.24,357l-.24-.24v-8.1Zm0,10.81,4.29,4.29-4.29,4.29-.24-.24v-8.1Zm0,10.81,4.29,4.29-4.29,4.29-.24-.24v-8.1Zm0,10.81,4.29,4.28-4.29,4.29-.24-.24v-8.09Zm0,10.8,4.29,4.29-4.29,4.29L113,400v-8.1Zm10.81,21.62.51.51h-1Zm1.12-1.12,4.28-4.29,4.29,4.29-1.62,1.63h-5.33Zm9.69,1.12.51.51h-1Zm1.11-1.12,4.29-4.29,4.29,4.29-1.62,1.63H137.6Zm9.69,1.12.51.51h-1Zm10.81-13L152.18,396l4.29-4.29.24.24V400Zm0-10.81-4.29-4.29,4.29-4.28.24.24v8.09Zm0-10.8-4.29-4.29,4.29-4.29.24.24v8.1Zm0-10.81-4.29-4.29,4.29-4.29.24.24v8.1Zm0-10.81-4.29-4.29,4.29-4.29.24.24v8.1Zm0-10.81-4.29-4.28,4.29-4.29.24.24V346Zm0-10.8-4.29-4.29,4.29-4.29.24.24v8.1Zm0-10.81-4.29-4.29,4.29-4.29.24.24v8.1Zm-42.72-11.32-.51.51-.24-.24v-.27ZM113,413.54l.24-.24.51.51H113Zm43,.27.51-.51.24.24v.27Z" style="fill:#263238"></path><path d="M111.43,311.72V415.38h46.86V311.72Zm45.28,1.84-.24.24-.51-.51h.75Zm-.24,97.51-4.29-4.29,4.29-4.29.24.24v8.1Zm-2.74,2.74H148.4l-1.62-1.63,4.29-4.29,4.29,4.29Zm-39.37-1.63,4.29-4.29,4.28,4.29-1.62,1.63H116ZM113,410.83v-8.1l.24-.24,4.29,4.29-4.29,4.29Zm.24-94.8,4.29,4.29-4.29,4.29-.24-.24v-8.1Zm2.74-2.74h5.33l1.62,1.63-4.28,4.29-4.29-4.29Zm39.38,1.63-4.29,4.29-4.29-4.29,1.62-1.63h5.33Zm-21.62,32.42-4.29,4.29-4.28-4.29,4.28-4.29Zm-3.17-5.4,4.29-4.29,4.29,4.29-4.29,4.28Zm4.29,6.51,4.29,4.29L134.86,357l-4.29-4.29Zm-1.12,9.7-4.29,4.28-4.28-4.28,4.28-4.29Zm1.12,1.11,4.29,4.29-4.29,4.29-4.29-4.29ZM133.74,369l-4.29,4.29L125.17,369l4.28-4.28Zm1.12,1.12,4.29,4.29-4.29,4.29-4.29-4.29Zm-1.12,9.69-4.29,4.29-4.28-4.29,4.28-4.29Zm1.12,1.12,4.29,4.28-4.29,4.29-4.29-4.29Zm1.11-1.12,4.29-4.29,4.29,4.29-4.29,4.29ZM136,369l4.29-4.28,4.29,4.28-4.29,4.29Zm0-10.8,4.29-4.29,4.29,4.29-4.29,4.28Zm0-10.81,4.29-4.29,4.29,4.29-4.29,4.29Zm0-10.81,4.29-4.29,4.29,4.29-4.29,4.29Zm-1.11-1.11-4.29-4.29,4.29-4.29,4.29,4.29Zm-1.12,1.11-4.29,4.29-4.28-4.29,4.28-4.29Zm-9.69-1.11-4.29-4.29,4.29-4.29,4.29,4.29Zm4.29,6.52-4.29,4.28-4.29-4.28,4.29-4.29Zm0,10.8L124.05,357l-4.29-4.29,4.29-4.29Zm0,10.81-4.29,4.29-4.29-4.29,4.29-4.29Zm0,10.81-4.29,4.29-4.29-4.29,4.29-4.29Zm0,10.8-4.29,4.29-4.29-4.29,4.29-4.28Zm-3.17,5.41,4.28-4.29,4.29,4.29-4.29,4.29Zm3.17,5.4-4.29,4.29L119.76,396l4.29-4.29Zm6.52-4.29,4.29,4.29-4.29,4.29L130.57,396Zm1.11-1.11,4.29-4.29,4.29,4.29-4.29,4.29Zm9.69,1.11L150,396l-4.29,4.29L141.38,396Zm-4.28-6.52,4.28-4.28,4.29,4.28-4.29,4.29Zm0-10.8,4.28-4.29,4.29,4.29-4.29,4.29Zm0-10.81,4.28-4.29,4.29,4.29-4.29,4.29Zm0-10.81,4.28-4.29,4.29,4.29L145.66,357Zm0-10.8,4.28-4.29,4.29,4.29-4.29,4.28Zm0-10.81,4.28-4.29,4.29,4.29-4.29,4.29Zm3.17-5.41L140.26,330,136,325.73l4.29-4.29Zm-3.17-5.4,4.28-4.29,4.29,4.29-4.29,4.29Zm-6.52,4.29-4.29-4.29,4.29-4.29,4.29,4.29Zm-1.12,1.12L129.45,330l-4.28-4.29,4.28-4.28Zm-9.69-1.12-4.29-4.29,4.29-4.29,4.29,4.29Zm-1.12,1.11L118.65,330l-4.29-4.29,4.29-4.28Zm0,10.81-4.28,4.29-4.29-4.29,4.29-4.29Zm0,10.81-4.28,4.29-4.29-4.29,4.29-4.29Zm0,10.81-4.28,4.28-4.29-4.28,4.29-4.29Zm0,10.8-4.28,4.29L114.36,369l4.29-4.28Zm0,10.81-4.28,4.29-4.29-4.29,4.29-4.29Zm0,10.81-4.28,4.29-4.29-4.29,4.29-4.29Zm0,10.81-4.28,4.28-4.29-4.28,4.29-4.29Zm1.12,1.11,4.29,4.29-4.29,4.29-4.29-4.29Zm1.12-1.11,4.28-4.29,4.29,4.29-4.29,4.28Zm9.69,1.11,4.29,4.29-4.29,4.29-4.29-4.29Zm1.11-1.11,4.29-4.29,4.29,4.29-4.29,4.28Zm9.69,1.11,4.29,4.29-4.29,4.29-4.28-4.29Zm1.12-1.11,4.29-4.29,4.29,4.29-4.29,4.28Zm0-10.81,4.29-4.29,4.29,4.29-4.29,4.29Zm0-10.81,4.29-4.29,4.29,4.29-4.29,4.29Zm0-10.81,4.29-4.28,4.29,4.28-4.29,4.29Zm0-10.8,4.29-4.29,4.29,4.29-4.29,4.28Zm0-10.81,4.29-4.29,4.29,4.29-4.29,4.29Zm0-10.81,4.29-4.29,4.29,4.29-4.29,4.29Zm0-10.81,4.29-4.28,4.29,4.28L151.07,330Zm-1.12-11.92-.5-.51h1Zm-1.11,1.12-4.29,4.29L136,314.92l1.63-1.63h5.33Zm-9.69-1.12-.51-.51h1Zm-1.12,1.12-4.29,4.29-4.28-4.29,1.62-1.63h5.33Zm-9.69-1.12-.51-.51h1Zm-10.81,13,4.29,4.29-4.29,4.29-.24-.24v-8.1Zm0,10.81,4.29,4.29-4.29,4.28L113,346v-8.09Zm0,10.8,4.29,4.29L113.24,357l-.24-.24v-8.1Zm0,10.81,4.29,4.29-4.29,4.29-.24-.24v-8.1Zm0,10.81,4.29,4.29-4.29,4.29-.24-.24v-8.1Zm0,10.81,4.29,4.28-4.29,4.29-.24-.24v-8.09Zm0,10.8,4.29,4.29-4.29,4.29L113,400v-8.1Zm10.81,21.62.51.51h-1Zm1.12-1.12,4.28-4.29,4.29,4.29-1.62,1.63h-5.33Zm9.69,1.12.51.51h-1Zm1.11-1.12,4.29-4.29,4.29,4.29-1.62,1.63H137.6Zm9.69,1.12.51.51h-1Zm10.81-13L152.18,396l4.29-4.29.24.24V400Zm0-10.81-4.29-4.29,4.29-4.28.24.24v8.09Zm0-10.8-4.29-4.29,4.29-4.29.24.24v8.1Zm0-10.81-4.29-4.29,4.29-4.29.24.24v8.1Zm0-10.81-4.29-4.29,4.29-4.29.24.24v8.1Zm0-10.81-4.29-4.28,4.29-4.29.24.24V346Zm0-10.8-4.29-4.29,4.29-4.29.24.24v8.1Zm0-10.81-4.29-4.29,4.29-4.29.24.24v8.1Zm-42.72-11.32-.51.51-.24-.24v-.27ZM113,413.54l.24-.24.51.51H113Zm43,.27.51-.51.24.24v.27Z" style="fill:#fff;opacity:0.5"></path><rect x="109.55" y="309.03" width="50.61" height="6.25" rx="1.98" style="fill:#263238"></rect><rect x="110.69" y="413.84" width="48.33" height="2.39" style="fill:#263238"></rect></g><g id="freepik--speech-bubble--inject-15"><path d="M212.61,166.86l-6-1.54v-8.11a4.6,4.6,0,0,0-4.6-4.61h-19.3a4.6,4.6,0,0,0-4.61,4.61v19.3a4.6,4.6,0,0,0,4.61,4.6H202a4.6,4.6,0,0,0,4.6-4.6V168.4Z" style="fill:#407BFF"></path><path d="M198.31,165.26l-3.39.11a26.93,26.93,0,0,1-1.14-7.59,6.41,6.41,0,0,0-1.75.12c-.56.19-.47,6-.47,6s-6.11-.11-6.43.16a3.55,3.55,0,0,0-.18,1.72.76.76,0,0,0,.66.74l.21,0,.58,5.8a.85.85,0,0,0,.88.77l5.69-.23a2.73,2.73,0,0,0,1.55-.55l.6-.45,3.52.08Z" style="fill:#407BFF"></path><path d="M198.31,165.26l-3.39.11a26.93,26.93,0,0,1-1.14-7.59,6.41,6.41,0,0,0-1.75.12c-.56.19-.47,6-.47,6s-6.11-.11-6.43.16a3.55,3.55,0,0,0-.18,1.72.76.76,0,0,0,.66.74l.21,0,.58,5.8a.85.85,0,0,0,.88.77l5.69-.23a2.73,2.73,0,0,0,1.55-.55l.6-.45,3.52.08Z" style="fill:#fff;opacity:0.7000000000000001;isolation:isolate"></path></g><g id="freepik--Character--inject-15"><path d="M293.36,99.37h0c.06,1.17-68.55-1.41-109,21a38.79,38.79,0,0,1,26.08,8.36l.7.08c3.49.65,19.9,5.16,42.27,21.43l.3-.06c1.65-.25,10.77-.86,26.3,3.11,15.59,3.74,23.37,8.53,24.72,9.52l.24.2c27.37-4,44-.29,47.38.77l.66.26a38.85,38.85,0,0,1,27,4.77C355,134.38,292.76,100.37,293.36,99.37Z" style="fill:#407BFF"></path><path d="M293.36,99.37h0c.06,1.17-68.55-1.41-109,21a38.79,38.79,0,0,1,26.08,8.36l.7.08c3.49.65,19.9,5.16,42.27,21.43l.3-.06c1.65-.25,10.77-.86,26.3,3.11,15.59,3.74,23.37,8.53,24.72,9.52l.24.2c27.37-4,44-.29,47.38.77l.66.26a38.85,38.85,0,0,1,27,4.77C355,134.38,292.76,100.37,293.36,99.37Z" style="opacity:0.2;isolation:isolate"></path><path d="M284.5,166.32l-.64-8.28a20.5,20.5,0,0,0,2.93-4.07c1-2-.89-8.91-1.46-9.55s-8,2.42-8.09,3.44.69,7.82,1.36,8.36a2.59,2.59,0,0,1,.85,1.31v8.79Z" style="fill:#e4897b"></path><path d="M257.69,181.11c5.85-.54,19.47-1.28,20.1-2.12s.5-18.77.5-18.77l10.58,5s-.26,19-1.91,22.59-27.24,6.12-27.24,6.12Z" style="fill:#407BFF"></path><path d="M288.87,165.24s-.26,19-1.91,22.58c-1,2.07-9.94,3.8-17.33,4.88-5.37.79-9.91,1.24-9.91,1.24l-1.17-7.41-.86-5.42c5.84-.54,19.46-1.28,20.1-2.12s.5-18.76.5-18.76Z" style="fill:#fff;opacity:0.1;isolation:isolate"></path><polygon points="277.79 158.57 290.9 164.58 290.14 170.39 276.99 165.47 277.79 158.57" style="fill:#407BFF"></polygon><path d="M269.63,192.7c-5.37.79-9.91,1.24-9.91,1.24l-1.17-7.41A19.78,19.78,0,0,1,269.63,192.7Z" style="opacity:0.2;isolation:isolate"></path><path d="M219.93,394.39l4.63,2.73a88.57,88.57,0,0,1,7.05-8.35h0c1.34-1.42,2.75-3,4.22-4.68,2.94-3.37,6.12-7.22,9.45-11.36l3-3.73c11.61-14.6,24.15-31.76,28.84-43.37,1.46-3.61,2.17-6.67,1.86-9-.95-6.93-3.65-17.36-6.73-27.44-4.69-15.41-10-30-10-30l-12.94,21.93s4,9.47,7.59,19.56c3.56,9.9,6.78,20.41,5.59,23.15-.12.27-.26.58-.43.92-2.15,4.45-8.1,14.54-14.85,25.68l-2.07,3.39c-3.63,5.95-7.4,12.07-10.89,17.68-1.36,2.21-2.69,4.34-4,6.35C224.37,387.45,219.93,394.39,219.93,394.39Z" style="fill:#e4897b"></path><path d="M248.53,369c-6.13,7.69-12,14.68-16.39,19.77-.62-3.13-1.26-6.83-1.75-10.88,5.05-8.12,11.24-18.14,16.87-27.42A105.37,105.37,0,0,0,248.53,369Z" style="opacity:0.2;isolation:isolate"></path><path d="M225.42,305.53c1.6,10.93,3.89,20.83,5.37,26.74.9,3.54,1.5,5.63,1.5,5.63a295.34,295.34,0,0,0,2,33.63c.49,4.4,1,8.62,1.56,12.55,2,14.53,4.14,25,4.14,25l5.52-.72-.21-35.6-.12-18.87L245,328.18,245,323.7l-.27-19.52-.39-28.79-19.2-8.64C222.52,277.69,223.48,292.36,225.42,305.53Z" style="fill:#e4897b"></path><path d="M220.35,391.37c.57-.42,5.35,6.74,5.35,6.74s-1.07,7.47,1.09,12.28-2,4.4-5.52-.16L212.66,399C210.18,395.71,214.49,395.63,220.35,391.37Z" style="fill:#263238"></path><path d="M227.32,403.52c-1.09-.26-1.79-3.35-1.92-4a.14.14,0,0,1,0-.09h0a.19.19,0,0,1,0-.07h0l.05-.06h0l.08,0c.1,0,2.12-.67,3.21,0a1.29,1.29,0,0,1,.65.9.8.8,0,0,1-.23.89c-.37.25-1.11,0-1.83-.29a3.52,3.52,0,0,1,1,1.66.94.94,0,0,1-.19.72.89.89,0,0,1-.7.41Zm.1-.44c.05,0,.18,0,.4-.23a.5.5,0,0,0,.09-.38c-.1-.71-1.17-1.75-1.92-2.38C226.33,401.42,226.91,403,227.42,403.08Zm-1.25-3.49c1.16.72,2.43,1.29,2.76,1.07.1-.06.07-.29,0-.41a.87.87,0,0,0-.44-.61,2.11,2.11,0,0,0-1-.22A6.24,6.24,0,0,0,226.17,399.59Z" style="fill:#407BFF"></path><path d="M238,405.52c0-.7,8.6-.15,8.6-.15s5.29,5.37,10.42,6.58,2.27,4.29-3.47,4.29H239.38C235.3,416.24,237.85,412.76,238,405.52Z" style="fill:#263238"></path><path d="M247.58,406.48l-.07-.06h0l0-.06h0s0-.05,0-.07h0a.3.3,0,0,1,0-.1c0-.1.75-2.09,1.91-2.57a1.34,1.34,0,0,1,1.11,0q.6.28.57.72c0,.46-.64.91-1.34,1.28a3.56,3.56,0,0,1,1.93.21.94.94,0,0,1,.46.58.83.83,0,0,1-.21.92,1.16,1.16,0,0,1-.76.2A10.91,10.91,0,0,1,247.58,406.48Zm.79-.15c1.26.54,2.84,1,3.24.68,0,0,.15-.12.06-.46a.48.48,0,0,0-.25-.3,2.2,2.2,0,0,0-1-.18A10.25,10.25,0,0,0,248.37,406.33Zm1.19-2.29a3.67,3.67,0,0,0-1.47,1.85c1.27-.49,2.5-1.16,2.52-1.54,0-.12-.19-.23-.31-.29a.92.92,0,0,0-.39-.09A.84.84,0,0,0,249.56,404Z" style="fill:#407BFF"></path><path d="M274.66,278.27l-23.58,8.38-.78-2.16-1-2.66-.41,3.84-.3,2.95H220s-.09-.83-.18-2.31A146.49,146.49,0,0,1,221,258.12,102,102,0,0,1,227,234.5c.24-.59.49-1.18.74-1.76l30.71-2.37.26,1.48,1.93,11,3.67,9.28L273.39,275Z" style="fill:#407BFF"></path><path d="M274.66,278.27l-23.58,8.38-.78-2.16-1-2.66-.41,3.84-.3,2.95H220s-.09-.83-.18-2.31A146.49,146.49,0,0,1,221,258.12,102,102,0,0,1,227,234.5c.24-.59.49-1.18.74-1.76l30.71-2.37.26,1.48,1.93,11,3.67,9.28L273.39,275Z" style="fill:#fff;opacity:0.7000000000000001"></path><path d="M246.37,234.3a1.56,1.56,0,1,0,1.55-1.56A1.55,1.55,0,0,0,246.37,234.3Z" style="fill:#fff;opacity:0.6000000000000001;isolation:isolate"></path><path d="M234.51,235.53S231,254.77,221,258.12A102,102,0,0,1,227,234.5Z" style="opacity:0.2"></path><path d="M264.34,252.15c-8-3.93-7.92-19.41-7.92-19.41l2.32-.89,1.93,11Z" style="opacity:0.2"></path><path d="M248.92,285.67l-.3,2.95H220s-.09-.83-.18-2.31Z" style="opacity:0.2"></path><polygon points="274.67 278.27 251.08 286.65 250.3 284.49 273.39 275.04 274.67 278.27" style="opacity:0.2"></polygon><path d="M249.33,281.84l.61-7.85,6.48-12.72s2,7.34-1.18,13.87S249.33,281.84,249.33,281.84Z" style="opacity:0.2"></path><polygon points="227.77 232.74 226.48 235.94 259.17 234.3 258.48 230.37 227.77 232.74" style="fill:#263238;isolation:isolate"></polygon><path d="M245,231.55l.38,3.59a.72.72,0,0,0,.79.65l4.78-.38a.72.72,0,0,0,.67-.79l-.33-3.54a.73.73,0,0,0-.78-.66l-4.83.33A.72.72,0,0,0,245,231.55Z" style="fill:#fff"></path><polygon points="237.01 231.99 236.63 236.21 235.44 236.21 235.63 231.99 237.01 231.99" style="fill:#407BFF"></polygon><polygon points="254.24 230.7 254.71 235.12 255.81 235.12 255.43 230.51 254.24 230.7" style="fill:#407BFF"></polygon><polygon points="237.01 231.99 236.63 236.21 235.44 236.21 235.63 231.99 237.01 231.99" style="fill:#fff;opacity:0.7000000000000001"></polygon><polygon points="254.24 230.7 254.71 235.12 255.81 235.12 255.43 230.51 254.24 230.7" style="fill:#fff;opacity:0.7000000000000001"></polygon><path d="M227.77,152.44s-4.83,1.79-6.36,8.4,2.54,20.88,3.18,27.63-6.74,20.43,12.48,21.67,22-51.25,13.11-54.92S227.77,152.44,227.77,152.44Z" style="fill:#263238"></path><path d="M255,183.78h0a.24.24,0,0,1-.2-.28c1.69-11.16,0-24.58-3.33-27.09a1.88,1.88,0,0,0-2.07-.2.25.25,0,1,1-.22-.45,2.37,2.37,0,0,1,2.59.25c3.9,2.9,5.09,17.2,3.52,27.56A.25.25,0,0,1,255,183.78Z" style="fill:#263238"></path><path d="M227.77,232.74s-2.56-22.87-9.14-39.05c0,0,13.48-7.26,39.06-12.57,0,0,6.54,11.78.79,49.25Z" style="fill:#263238"></path><path d="M248.92,223.9,227.77,262l-21.26-5,19.6-28.25-7.48-35.13s12.15-10.25,39.06-12.57c0,0,7.47,12.28,3.16,42.78l10.77,29.74-1.91,2.13Z" style="fill:#407BFF"></path><path d="M271.62,253.64l-1.91,2.13L248.93,223.9,227.77,262l-21.26-5,19.61-28.25-2.19-10.27-3.3-15.5-2-9.36s12.14-10.25,39.05-12.58c0,0,4.73,7.79,4.49,26.38,0,2.12-.12,4.39-.3,6.8q-.31,4.46-1,9.61Z" style="fill:#fff;opacity:0.2;isolation:isolate"></path><path d="M262.18,207.49c0,2.12-.12,4.39-.3,6.8-5.17,3.94-20.37,13.11-24.87,13.13-3.64,0-13.08-8.87-13.08-8.87l-3.3-15.5c3.3,2.5,17.4,13.1,20.86,14.44,3.91,1.52,19.36-13,19.36-13Z" style="opacity:0.2;isolation:isolate"></path><path d="M247.14,197.69s7.93-8.53,8.67-10.85-3.32-3.31-3.32-3.31-2.29-4.74-5-5.5-19.87,4.77-20.48,6.49a23,23,0,0,0-.49,5.69s-1.39.61,1.26,3.28S247.14,197.69,247.14,197.69Z" style="fill:#407BFF"></path><path d="M247.14,197.69s7.93-8.53,8.67-10.85-3.32-3.31-3.32-3.31-2.29-4.74-5-5.5-19.87,4.77-20.48,6.49a23,23,0,0,0-.49,5.69s-1.39.61,1.26,3.28S247.14,197.69,247.14,197.69Z" style="fill:#fff;opacity:0.1;isolation:isolate"></path><path d="M245.1,196.8a87.57,87.57,0,0,1-12.85-7.37c3.14-3,2.57-7.32,1.77-10a15.81,15.81,0,0,0-1-2.51l9.24,1.73a26.82,26.82,0,0,0-.36,3.89,11.76,11.76,0,0,0,.26,2.85c.63,2.76,2.2,2.8,2.2,2.8C246,191.18,245.1,196.8,245.1,196.8Z" style="fill:#e4897b"></path><path d="M242,182.5a11.76,11.76,0,0,0,.26,2.85c-3.66-.48-6.44-3.41-8.19-6a15.81,15.81,0,0,0-1-2.51l9.24,1.73A26.82,26.82,0,0,0,242,182.5Z" style="opacity:0.2;isolation:isolate"></path><path d="M242.31,206.15a.47.47,0,0,1-.17,0,.51.51,0,0,1-.3-.64c1.81-4.86-2.39-9.37-2.43-9.42a.5.5,0,0,1,.72-.68c.2.2,4.67,5,2.65,10.44A.52.52,0,0,1,242.31,206.15Z" style="fill:#fff"></path><path d="M254.88,198.34c-4.39,0-7.71-3.32-7.87-3.48a.5.5,0,0,1,.72-.7s4,3.94,8.58,3a.5.5,0,0,1,.59.4.51.51,0,0,1-.4.59A9,9,0,0,1,254.88,198.34Z" style="fill:#fff"></path><path d="M243,206.07a.88.88,0,1,1-.87-.87A.87.87,0,0,1,243,206.07Z" style="fill:#fff"></path><path d="M257.64,197.69a.88.88,0,1,1-.88-.87A.87.87,0,0,1,257.64,197.69Z" style="fill:#fff"></path><path d="M296.85,88.75c.47,1.73-.15,3.2-.48,4.73l-1.12,4.58L293,107.21l-4.48,18.31-9,36.61-9.07,36.58-4.58,18.21a4.54,4.54,0,0,0,6.8,4.78,4.63,4.63,0,0,0,2.06-2.78,1.49,1.49,0,0,1,1.82-1.09,1.51,1.51,0,0,1,1.09,1.81,7.62,7.62,0,0,1-14.87-3.35l4.46-18.38,9-36.59,9.14-36.57L290,106.47l2.29-9.14,1.15-4.57c.42-1.52.56-3.1,1.78-4.42a1,1,0,0,1,1.35,0A1,1,0,0,1,296.85,88.75Z" style="fill:#263238"></path><path d="M295.34,91.36h0s-56.12-6.71-111,29c0,0,16.33-8.75,30.59-4.37,0,0,20.2-4.79,45.53,9.44,0,0,9.55-3,26.16,1.1s23.65,11.23,23.65,11.23c29-.76,44.67,12.9,44.67,12.9,14.66,2.78,25,18.14,25,18.14C348.11,111.61,295.35,91.36,295.34,91.36Z" style="fill:#407BFF"></path><path d="M295.34,91.36h0s-56.12-6.71-111,29c0,0,16.33-8.75,30.59-4.37,0,0,20.2-4.79,45.53,9.44,0,0,9.55-3,26.16,1.1s23.65,11.23,23.65,11.23c29-.76,44.67,12.9,44.67,12.9,14.66,2.78,25,18.14,25,18.14C348.11,111.61,295.35,91.36,295.34,91.36Z" style="fill:#fff;opacity:0.4;isolation:isolate"></path><path d="M214.94,116s20.2-4.79,45.53,9.44c11.54-23.31,34.87-34.09,34.87-34.09S245.59,90.71,214.94,116Z" style="fill:#407BFF"></path><path d="M295.34,91.36h0s15.61,20.42,14.94,46.42c29-.76,44.67,12.9,44.67,12.9C339.65,114,295.35,91.36,295.34,91.36Z" style="fill:#407BFF"></path><path d="M250.28,207.24c0,.06,11.66-8,11.66-8a29.6,29.6,0,0,1,2.4-4.29c.72-.77,9.13-1.79,9.76-1.79s-1.53,8.89-1.78,9.35-8,1.49-8,1.49l-10.1,7.88Z" style="fill:#e4897b"></path><path d="M218.63,193.69c-5.58,8,11.15,30.16,16.06,33s28.38-16.58,28.38-16.58L257.94,200s-16.87,13.7-19.13,12.68-8.88-11.07-11-15.85S220.32,191.29,218.63,193.69Z" style="fill:#407BFF"></path><path d="M218.63,193.69c-5.58,8,11.15,30.16,16.06,33s28.38-16.58,28.38-16.58L257.94,200s-16.87,13.7-19.13,12.68-8.88-11.07-11-15.85S220.32,191.29,218.63,193.69Z" style="fill:#fff;opacity:0.1;isolation:isolate"></path><polygon points="252.49 203.25 257.81 198.78 264.34 211 259.17 215.71 252.49 203.25" style="fill:#407BFF"></polygon><path d="M240.13,152.6c9.94,0,10.78,4.81,11.35,13.1.71,10.35-1.6,17.7-11.65,15.47C226.19,178.13,226.78,152.6,240.13,152.6Z" style="fill:#e4897b"></path><path d="M246.28,165.23a16.63,16.63,0,0,0,2.34,3.34,2.21,2.21,0,0,1-2.13.91Z" style="fill:#de5753"></path><path d="M241.37,164.57c0,.66-.34,1.2-.78,1.21s-.8-.52-.82-1.18.33-1.2.77-1.21S241.35,163.91,241.37,164.57Z" style="fill:#263238"></path><path d="M240.36,163.42l1.42-.59S241.09,164.05,240.36,163.42Z" style="fill:#263238"></path><path d="M249.57,164.25c0,.67-.33,1.21-.77,1.22s-.81-.52-.82-1.18.33-1.2.77-1.21S249.56,163.59,249.57,164.25Z" style="fill:#263238"></path><path d="M248.57,163.11l1.42-.59S249.3,163.74,248.57,163.11Z" style="fill:#263238"></path><path d="M237.81,160.58a.4.4,0,0,1-.23-.08.36.36,0,0,1-.05-.5,4.53,4.53,0,0,1,3.81-1.34.36.36,0,1,1-.09.71,3.84,3.84,0,0,0-3.17,1.08A.37.37,0,0,1,237.81,160.58Z" style="fill:#263238"></path><path d="M250.34,159.71a.35.35,0,0,1-.19-.06,3.39,3.39,0,0,0-2.89-.63.35.35,0,0,1-.45-.21.34.34,0,0,1,.21-.45,4.07,4.07,0,0,1,3.52.7.36.36,0,0,1,.1.49A.34.34,0,0,1,250.34,159.71Z" style="fill:#263238"></path><path d="M231.48,166.61s3.77-6.59,3.21-11.69c0,0,5.67-5.85,13.31-.07,0,0,3.19,5.49,3.39,9.76,0,0,1.59-14.35-12.23-14.7s-13.81,19.86-6.68,25.9C232.48,175.81,229.14,170.74,231.48,166.61Z" style="fill:#263238"></path><path d="M232.79,168.31a3.53,3.53,0,0,0-3.79-3.23c-2.49.27-3.69,5.38,2.5,6.62C232.39,171.88,232.89,171,232.79,168.31Z" style="fill:#e4897b"></path><path d="M244.49,174.27a4.35,4.35,0,0,1-4.17-2.54.36.36,0,0,1,.18-.47.37.37,0,0,1,.47.17c1.25,2.72,4.33,2.06,4.36,2.06a.34.34,0,0,1,.42.26.36.36,0,0,1-.26.43A5.41,5.41,0,0,1,244.49,174.27Z" style="fill:#263238"></path><path d="M234.69,154.92s9.19-4.08,15.27,1.3c0,0,2.39-7.09-5.76-9.5s-16.43,5.72-16.43,5.72Z" style="fill:#263238"></path><path d="M234.69,154.92s-5.36,5.29-4.58,15.82-.25,17.2-2.34,23.79,3.38,8.56,3.38,8.56-6.24,1.54-7.53-5.14c-.84-4.38,1.17-13.88.16-25.2S226.8,153.44,234.69,154.92Z" style="fill:#263238"></path></g></svg>